# xmcd CD database file
#
# Track frame offsets:
#	182
#	17157
#	39157
#
# Disc length: 775 seconds
#
# Revision: 7
# Processed by: cddbd v1.5.1PL0 Copyright (c) Steve Scherf et al.
# Submitted via: CDex 1.51
#
DISCID=17030503
DTITLE=Kelly Family - I Wanna Kiss You [CDM)
DYEAR=1999
DGENRE=Pop
TTITLE0=I Wanna Kiss You
TTITLE1=The Rose (Live Viva)
TTITLE2=I Will Be Your Bride (Live Viva)
EXTD=YEAR: 1999
EXTT0=
EXTT1=
EXTT2=
PLAYORDER=
